<svg width="21" height="21" viewBox="0 0 21 21" fill="none" xmlns="http://www.w3.org/2000/svg">
<path d="M18.74 5.32L12.98 1.29C11.41 0.189999 9 0.249999 7.49 1.42L2.48 5.33C1.48 6.11 0.690002 7.71 0.690002 8.97V15.87C0.690002 18.42 2.76 20.5 5.31 20.5H16.09C18.64 20.5 20.71 18.43 20.71 15.88V9.1C20.71 7.75 19.84 6.09 18.74 5.32ZM11.45 16.5C11.45 16.91 11.11 17.25 10.7 17.25C10.29 17.25 9.95 16.91 9.95 16.5V13.5C9.95 13.09 10.29 12.75 10.7 12.75C11.11 12.75 11.45 13.09 11.45 13.5V16.5Z" fill="#1C2C56"/>
</svg>
